<?xml version="1.0" standalone="no"?>
<!DOCTYPE svg PUBLIC "-//W3C//DTD SVG 20010904//EN"
 "http://www.w3.org/TR/2001/REC-SVG-20010904/DTD/svg10.dtd">
<svg version="1.0" xmlns="http://www.w3.org/2000/svg"
 width="512.000000pt" height="512.000000pt" viewBox="0 0 512.000000 512.000000"
 preserveAspectRatio="xMidYMid meet">
<metadata>
Created by potrace 1.14, written by Peter Selinger 2001-2017
</metadata>
<g transform="translate(0.000000,512.000000) scale(0.100000,-0.100000)"
fill="#000000" stroke="none">
<path d="M3504 3799 c-48 -24 -52 -47 -53 -311 l0 -247 25 -31 c22 -26 32 -30
75 -30 53 0 81 19 99 66 6 14 10 124 10 246 0 183 -3 226 -16 254 -26 55 -88
78 -140 53z"/>
<path d="M0 3556 l0 -236 285 0 285 0 0 -775 0 -775 270 0 270 0 0 -210 0
-210 183 0 c459 0 833 127 1069 364 136 136 234 314 291 526 31 114 31 116 32
375 0 252 -1 263 -27 362 -31 114 -108 278 -171 363 -151 204 -433 369 -702
410 -44 7 -93 17 -110 23 -20 8 -291 12 -852 15 l-823 3 0 -235z m1698 -262
c195 -78 322 -228 378 -449 25 -98 25 -378 0 -484 -41 -176 -107 -296 -217
-395 -73 -65 -136 -100 -249 -137 -89 -29 -107 -32 -287 -37 l-193 -5 0 767 0
766 251 0 c247 0 251 0 317 -26z"/>
<path d="M3163 3698 c-32 -51 -33 -61 -33 -533 l0 -474 33 -34 c61 -66 135
-60 185 13 l23 35 -3 470 c-4 569 4 535 -118 535 -52 0 -82 -4 -87 -12z"/>
<path d="M4089 3645 c-16 -9 -29 -28 -36 -52 -7 -26 -10 -384 -9 -1130 l1
-1091 24 -26 c21 -22 33 -26 80 -26 46 1 61 5 86 27 l30 26 -1 1102 c-1 1186
1 1148 -53 1173 -33 16 -90 15 -122 -3z"/>
<path d="M3782 3547 c-21 -23 -22 -30 -27 -452 -3 -237 -2 -628 1 -870 l7
-439 37 -39 c32 -35 40 -39 67 -33 17 4 42 17 56 30 l25 23 7 594 c3 327 5
722 3 877 l-3 284 -28 24 c-39 33 -114 34 -145 1z"/>
<path d="M4391 3527 c-51 -30 -50 -27 -51 -565 0 -540 1 -550 51 -586 39 -27
103 -21 141 13 l33 29 -1 537 c0 533 0 536 -22 557 -26 27 -115 35 -151 15z"/>
<path d="M2920 3403 c-14 -3 -37 -16 -52 -31 -27 -24 -28 -30 -28 -117 0 -115
8 -125 102 -125 55 0 68 4 86 23 19 20 22 35 22 113 0 81 -2 93 -22 111 -25
23 -69 33 -108 26z"/>
<path d="M3481 3075 c-13 -7 -28 -19 -32 -27 -5 -7 -9 -89 -9 -181 l0 -169 29
-29 c24 -23 38 -29 75 -29 110 0 126 28 126 220 0 144 -4 165 -43 208 -16 18
-31 22 -71 21 -28 -1 -62 -7 -75 -14z"/>
<path d="M2882 3002 c-30 -28 -32 -34 -32 -100 0 -61 3 -75 25 -100 32 -39 74
-48 114 -28 42 22 51 44 51 125 0 86 -22 119 -85 128 -35 4 -45 1 -73 -25z"/>
<path d="M5040 2942 c-32 -14 -59 -39 -67 -63 -5 -13 -6 -71 -3 -127 6 -124
19 -142 101 -142 l49 0 0 159 c0 88 -3 162 -7 164 -18 10 -59 15 -73 9z"/>
<path d="M4694 2892 c-49 -39 -54 -70 -54 -308 0 -142 4 -225 10 -229 6 -4 8
-21 6 -38 -3 -18 -2 -58 2 -91 6 -54 10 -60 42 -78 63 -35 135 -13 169 51 7
13 11 125 11 321 0 325 -2 339 -54 374 -33 21 -105 21 -132 -2z"/>
<path d="M4386 2239 c-14 -17 -26 -38 -27 -47 0 -9 0 -138 1 -287 1 -284 3
-297 49 -332 30 -23 80 -15 112 16 l29 29 0 300 0 300 -31 26 c-45 38 -99 36
-133 -5z"/>
<path d="M4688 2069 c-28 -20 -28 -22 -28 -129 0 -108 0 -109 29 -129 19 -14
45 -21 75 -21 39 0 51 5 81 35 33 34 35 39 35 106 0 73 -8 98 -43 137 -28 30
-109 31 -149 1z"/>
</g>
</svg>
